P1
15 15
101010101010100
000000010101011
010101010100010
101010001010110
101010100010101
010101000101101
010101000101010
100010000001010
101010001010101
010101010010101
010100000101010
101010000000010
101010000010101
000000010010000
010101000101010
